G04 EAGLE Gerber X2 export*
%TF.Part,Single*%
%TF.FileFunction,Copper,L2,Bot,Mixed*%
%TF.FilePolarity,Positive*%
%TF.GenerationSoftware,Autodesk,EAGLE,8.6.3*%
%TF.CreationDate,2020-10-25T23:43:17Z*%
G75*
%MOMM*%
%FSLAX34Y34*%
%LPD*%
%AMOC8*
5,1,8,0,0,1.08239X$1,22.5*%
G01*
%ADD10C,2.159000*%
%ADD11P,2.336880X8X112.500000*%
%ADD12P,1.732040X8X112.500000*%
%ADD13C,1.600200*%
%ADD14C,1.320800*%
%ADD15C,1.524000*%
%ADD16P,1.429621X8X112.500000*%
%ADD17R,1.600000X1.400000*%
%ADD18C,1.676400*%
%ADD19P,1.814519X8X22.500000*%
%ADD20C,2.000000*%
%ADD21P,1.429621X8X292.500000*%
%ADD22P,1.429621X8X22.500000*%
%ADD23P,1.429621X8X202.500000*%
%ADD24P,1.732040X8X292.500000*%
%ADD25C,0.254000*%
%ADD26C,0.756400*%
%ADD27C,1.270000*%
%ADD28C,0.508000*%
%ADD29C,1.016000*%
%ADD30C,0.812800*%
%ADD31C,0.609600*%


D10*
X2222500Y228600D03*
D11*
X2222500Y381000D03*
X2171700Y231140D03*
X2171700Y381000D03*
X1475740Y231140D03*
X1475740Y381000D03*
X759460Y231140D03*
X759460Y381000D03*
D12*
X883920Y134620D03*
X883920Y160020D03*
X830580Y160020D03*
D13*
X830580Y134620D03*
D10*
X810260Y228600D03*
D11*
X810260Y381000D03*
D10*
X1526540Y228600D03*
D11*
X1526540Y381000D03*
D14*
X1181100Y235204D02*
X1181100Y221996D01*
X1155700Y221996D02*
X1155700Y235204D01*
X1130300Y235204D02*
X1130300Y221996D01*
X1104900Y221996D02*
X1104900Y235204D01*
X1079500Y235204D02*
X1079500Y221996D01*
X1054100Y221996D02*
X1054100Y235204D01*
X1028700Y235204D02*
X1028700Y221996D01*
X1003300Y221996D02*
X1003300Y235204D01*
X977900Y235204D02*
X977900Y221996D01*
X952500Y221996D02*
X952500Y235204D01*
X927100Y235204D02*
X927100Y221996D01*
X901700Y221996D02*
X901700Y235204D01*
X876300Y235204D02*
X876300Y221996D01*
X850900Y221996D02*
X850900Y235204D01*
X850900Y374396D02*
X850900Y387604D01*
X876300Y387604D02*
X876300Y374396D01*
X901700Y374396D02*
X901700Y387604D01*
X927100Y387604D02*
X927100Y374396D01*
X952500Y374396D02*
X952500Y387604D01*
X977900Y387604D02*
X977900Y374396D01*
X1003300Y374396D02*
X1003300Y387604D01*
X1028700Y387604D02*
X1028700Y374396D01*
X1054100Y374396D02*
X1054100Y387604D01*
X1079500Y387604D02*
X1079500Y374396D01*
X1104900Y374396D02*
X1104900Y387604D01*
X1130300Y387604D02*
X1130300Y374396D01*
X1155700Y374396D02*
X1155700Y387604D01*
X1181100Y387604D02*
X1181100Y374396D01*
X1892300Y235204D02*
X1892300Y221996D01*
X1866900Y221996D02*
X1866900Y235204D01*
X1841500Y235204D02*
X1841500Y221996D01*
X1816100Y221996D02*
X1816100Y235204D01*
X1790700Y235204D02*
X1790700Y221996D01*
X1765300Y221996D02*
X1765300Y235204D01*
X1739900Y235204D02*
X1739900Y221996D01*
X1714500Y221996D02*
X1714500Y235204D01*
X1689100Y235204D02*
X1689100Y221996D01*
X1663700Y221996D02*
X1663700Y235204D01*
X1638300Y235204D02*
X1638300Y221996D01*
X1612900Y221996D02*
X1612900Y235204D01*
X1587500Y235204D02*
X1587500Y221996D01*
X1562100Y221996D02*
X1562100Y235204D01*
X1562100Y374396D02*
X1562100Y387604D01*
X1587500Y387604D02*
X1587500Y374396D01*
X1612900Y374396D02*
X1612900Y387604D01*
X1638300Y387604D02*
X1638300Y374396D01*
X1663700Y374396D02*
X1663700Y387604D01*
X1689100Y387604D02*
X1689100Y374396D01*
X1714500Y374396D02*
X1714500Y387604D01*
X1739900Y387604D02*
X1739900Y374396D01*
X1765300Y374396D02*
X1765300Y387604D01*
X1790700Y387604D02*
X1790700Y374396D01*
X1816100Y374396D02*
X1816100Y387604D01*
X1841500Y387604D02*
X1841500Y374396D01*
X1866900Y374396D02*
X1866900Y387604D01*
X1892300Y387604D02*
X1892300Y374396D01*
X2603500Y235204D02*
X2603500Y221996D01*
X2578100Y221996D02*
X2578100Y235204D01*
X2552700Y235204D02*
X2552700Y221996D01*
X2527300Y221996D02*
X2527300Y235204D01*
X2501900Y235204D02*
X2501900Y221996D01*
X2476500Y221996D02*
X2476500Y235204D01*
X2451100Y235204D02*
X2451100Y221996D01*
X2425700Y221996D02*
X2425700Y235204D01*
X2400300Y235204D02*
X2400300Y221996D01*
X2374900Y221996D02*
X2374900Y235204D01*
X2349500Y235204D02*
X2349500Y221996D01*
X2324100Y221996D02*
X2324100Y235204D01*
X2298700Y235204D02*
X2298700Y221996D01*
X2273300Y221996D02*
X2273300Y235204D01*
X2273300Y374396D02*
X2273300Y387604D01*
X2298700Y387604D02*
X2298700Y374396D01*
X2324100Y374396D02*
X2324100Y387604D01*
X2349500Y387604D02*
X2349500Y374396D01*
X2374900Y374396D02*
X2374900Y387604D01*
X2400300Y387604D02*
X2400300Y374396D01*
X2425700Y374396D02*
X2425700Y387604D01*
X2451100Y387604D02*
X2451100Y374396D01*
X2476500Y374396D02*
X2476500Y387604D01*
X2501900Y387604D02*
X2501900Y374396D01*
X2527300Y374396D02*
X2527300Y387604D01*
X2552700Y387604D02*
X2552700Y374396D01*
X2578100Y374396D02*
X2578100Y387604D01*
X2603500Y387604D02*
X2603500Y374396D01*
D15*
X762000Y63500D02*
X762000Y48260D01*
X787400Y48260D02*
X787400Y63500D01*
X812800Y63500D02*
X812800Y48260D01*
X838200Y48260D02*
X838200Y63500D01*
X863600Y63500D02*
X863600Y48260D01*
X1615440Y160020D02*
X1630680Y160020D01*
X1630680Y134620D02*
X1615440Y134620D01*
X1615440Y109220D02*
X1630680Y109220D01*
X1630680Y83820D02*
X1615440Y83820D01*
X1615440Y58420D02*
X1630680Y58420D01*
X2133600Y124460D02*
X2133600Y139700D01*
X2159000Y139700D02*
X2159000Y124460D01*
X2184400Y124460D02*
X2184400Y139700D01*
X2209800Y139700D02*
X2209800Y124460D01*
X2235200Y124460D02*
X2235200Y139700D01*
X2260600Y139700D02*
X2260600Y124460D01*
X2286000Y124460D02*
X2286000Y139700D01*
X2311400Y139700D02*
X2311400Y124460D01*
D16*
X2768600Y33020D03*
X2768600Y134620D03*
D17*
X3412400Y78380D03*
X3496400Y78380D03*
X3496400Y55880D03*
X3496400Y33380D03*
X3412400Y33380D03*
X133440Y33380D03*
X49440Y33380D03*
X49440Y55880D03*
X49440Y78380D03*
X133440Y78380D03*
D18*
X45720Y342900D03*
X45720Y317500D03*
X45720Y292100D03*
X45720Y266700D03*
X45720Y241300D03*
X629920Y342900D03*
X629920Y317500D03*
X629920Y292100D03*
X629920Y266700D03*
X629920Y241300D03*
X96520Y215900D03*
X121920Y215900D03*
X147320Y215900D03*
X172720Y215900D03*
X223520Y215900D03*
X248920Y215900D03*
X274320Y215900D03*
X299720Y215900D03*
X375920Y215900D03*
X401320Y215900D03*
X426720Y215900D03*
X452120Y215900D03*
X502920Y215900D03*
X528320Y215900D03*
X553720Y215900D03*
X579120Y215900D03*
D19*
X2819400Y35560D03*
X2844800Y35560D03*
X2870200Y35560D03*
X2895600Y35560D03*
X2921000Y35560D03*
X2946400Y35560D03*
X2971800Y35560D03*
X2997200Y35560D03*
X3022600Y35560D03*
X3048000Y35560D03*
X3073400Y35560D03*
X3098800Y35560D03*
X3124200Y35560D03*
X3149600Y35560D03*
X3175000Y35560D03*
X3200400Y35560D03*
X3225800Y35560D03*
X3251200Y35560D03*
X3276600Y35560D03*
X3302000Y35560D03*
X3327400Y35560D03*
X3352800Y35560D03*
X3352800Y238760D03*
X3327400Y238760D03*
X3302000Y238760D03*
X3276600Y238760D03*
X3251200Y238760D03*
X3225800Y238760D03*
X3200400Y238760D03*
X3175000Y238760D03*
X3149600Y238760D03*
X3124200Y238760D03*
X3098800Y238760D03*
X3073400Y238760D03*
X3048000Y238760D03*
X3022600Y238760D03*
X2997200Y238760D03*
X2971800Y238760D03*
X2946400Y238760D03*
X2921000Y238760D03*
X2895600Y238760D03*
X2870200Y238760D03*
X2844800Y238760D03*
X2819400Y238760D03*
D20*
X640291Y50550D03*
X589491Y50550D03*
D21*
X213360Y347980D03*
X213360Y322580D03*
X264160Y347980D03*
X264160Y322580D03*
X71120Y347980D03*
X71120Y322580D03*
X121920Y347980D03*
X121920Y322580D03*
X406400Y347980D03*
X406400Y322580D03*
X355600Y347980D03*
X355600Y322580D03*
D16*
X264160Y261620D03*
X264160Y287020D03*
X213360Y261620D03*
X213360Y287020D03*
X406400Y261620D03*
X406400Y287020D03*
X355600Y261620D03*
X355600Y287020D03*
X548640Y261620D03*
X548640Y287020D03*
X497840Y261620D03*
X497840Y287020D03*
D21*
X497840Y347980D03*
X497840Y322580D03*
X548640Y347980D03*
X548640Y322580D03*
D16*
X96520Y261620D03*
X96520Y287020D03*
D22*
X40640Y121920D03*
X142240Y121920D03*
D23*
X2974340Y340360D03*
X2948940Y340360D03*
D22*
X2903220Y340360D03*
X2928620Y340360D03*
D21*
X3246120Y353060D03*
X3246120Y327660D03*
X3195320Y353060D03*
X3195320Y327660D03*
D23*
X3116580Y274320D03*
X3091180Y274320D03*
D22*
X3040380Y274320D03*
X3065780Y274320D03*
D23*
X2974340Y274320D03*
X2948940Y274320D03*
D22*
X2903220Y274320D03*
X2928620Y274320D03*
D16*
X3388360Y261620D03*
X3388360Y287020D03*
X3337560Y261620D03*
X3337560Y287020D03*
D21*
X3388360Y353060D03*
X3388360Y327660D03*
X3337560Y353060D03*
X3337560Y327660D03*
D23*
X3258820Y274320D03*
X3233420Y274320D03*
D22*
X3182620Y274320D03*
X3208020Y274320D03*
D21*
X3103880Y353060D03*
X3103880Y327660D03*
X3053080Y353060D03*
X3053080Y327660D03*
D15*
X2745740Y48260D02*
X2745740Y33020D01*
X2720340Y33020D02*
X2720340Y48260D01*
D24*
X2687320Y48260D03*
X2687320Y22860D03*
D25*
X3048000Y35560D02*
X3048000Y111760D01*
D26*
X3048000Y111760D03*
D25*
X2209800Y111760D02*
X2209800Y132080D01*
X2209800Y111760D02*
X2357120Y111760D01*
X2357120Y132080D01*
D26*
X2357120Y132080D03*
D25*
X3053080Y137160D02*
X3088640Y137160D01*
X3098800Y127000D01*
X3098800Y35560D01*
D26*
X3053080Y137160D03*
D25*
X3124200Y111760D02*
X3124200Y35560D01*
D26*
X3124200Y111760D03*
D25*
X133440Y33380D02*
X49440Y33380D01*
X133440Y33380D02*
X157480Y57420D01*
X157480Y157480D01*
X751840Y157480D02*
X792480Y198120D01*
X751840Y157480D02*
X157480Y157480D01*
X792480Y198120D02*
X1036320Y198120D01*
D26*
X1061720Y167640D03*
D25*
X1061720Y172720D02*
X1036320Y198120D01*
X1061720Y172720D02*
X1061720Y167640D01*
X1676400Y66040D02*
X1930400Y66040D01*
X1945640Y142240D02*
X2047240Y142240D01*
X2057400Y132080D01*
X2118360Y132080D01*
X2118360Y111760D01*
X2159000Y111760D01*
X2159000Y132080D01*
D26*
X1579880Y157480D03*
D25*
X1945640Y142240D02*
X1945640Y81280D01*
X1930400Y66040D01*
X1676400Y137160D02*
X1666240Y147320D01*
X1676400Y137160D02*
X1676400Y66040D01*
X1666240Y147320D02*
X1590040Y147320D01*
X1579880Y157480D01*
X147320Y121920D02*
X142240Y121920D01*
X147320Y121920D02*
X147320Y162560D01*
X746760Y162560D02*
X787400Y203200D01*
X746760Y162560D02*
X147320Y162560D01*
X1041400Y203200D02*
X1071880Y172720D01*
X1041400Y203200D02*
X787400Y203200D01*
X1359585Y172720D02*
X1360025Y173160D01*
X1413655Y173160D02*
X1414095Y172720D01*
X1671320Y172720D01*
X1413655Y173160D02*
X1360025Y173160D01*
X1359585Y172720D02*
X1071880Y172720D01*
X1940560Y147320D02*
X2052320Y147320D01*
X2062480Y137160D01*
X2128520Y137160D02*
X2133600Y132080D01*
X2128520Y137160D02*
X2062480Y137160D01*
X1925320Y71120D02*
X1686560Y71120D01*
X1686560Y76200D02*
X1686560Y157480D01*
X1686560Y76200D02*
X1686560Y71120D01*
X1686560Y157480D02*
X1671320Y172720D01*
X1940560Y147320D02*
X1940560Y86360D01*
X1925320Y71120D01*
D26*
X1686560Y76200D03*
X2001520Y111760D03*
D25*
X1971040Y111760D01*
D26*
X1955800Y30480D03*
D25*
X1971040Y30480D02*
X1971040Y111760D01*
X1971040Y30480D02*
X1955800Y30480D01*
D26*
X3073400Y66040D03*
D25*
X3073400Y35560D01*
X2077720Y162560D02*
X2077720Y167640D01*
X1920240Y167640D01*
X1910080Y157480D01*
X1747520Y157480D01*
X1747520Y152400D01*
D26*
X2077720Y162560D03*
X1747520Y152400D03*
D25*
X3225800Y106680D02*
X3225800Y35560D01*
D26*
X3225800Y106680D03*
D25*
X1661160Y325120D02*
X1656080Y320040D01*
X1600200Y320040D01*
X1584960Y335280D01*
X949960Y335280D01*
X949960Y330200D01*
D26*
X1661160Y325120D03*
X949960Y330200D03*
D25*
X1666240Y330200D02*
X2296160Y330200D01*
X1666240Y330200D02*
X1661160Y325120D01*
X2296160Y330200D02*
X2311400Y314960D01*
D26*
X2372360Y320040D03*
D25*
X2352040Y314960D02*
X2311400Y314960D01*
X2352040Y314960D02*
X2362200Y325120D01*
X2372360Y325120D01*
X2372360Y320040D01*
X3022600Y111760D02*
X3022600Y35560D01*
X3012440Y121920D02*
X3012440Y198120D01*
X3012440Y121920D02*
X3022600Y111760D01*
X2976880Y320040D02*
X2971800Y325120D01*
X2372360Y325120D01*
D26*
X2976880Y320040D03*
D25*
X3017520Y203200D02*
X3012440Y198120D01*
X3017520Y203200D02*
X3362960Y203200D01*
X3408680Y248920D01*
X3154680Y338582D02*
X3039027Y338582D01*
X3408680Y264751D02*
X3408680Y248920D01*
D26*
X3022600Y355600D03*
D25*
X3033947Y344253D02*
X3039027Y338582D01*
X3033947Y344253D02*
X3022600Y355600D01*
X3271520Y314960D02*
X3303187Y272542D01*
X3400889Y272542D01*
X3408680Y264751D01*
X3185160Y314960D02*
X3154680Y338582D01*
X3185160Y314960D02*
X3271520Y314960D01*
D26*
X1183640Y294640D03*
X1935480Y289560D03*
X2641600Y284480D03*
D25*
X1183640Y294640D02*
X1183640Y299720D01*
X2870200Y243840D02*
X2870200Y238760D01*
X1549400Y299720D02*
X1183640Y299720D01*
X1549400Y299720D02*
X1564640Y284480D01*
X1864360Y284480D01*
X1874520Y294640D01*
X1935480Y294640D01*
X2260600Y294640D01*
X1935480Y294640D02*
X1935480Y289560D01*
X2641600Y289560D02*
X2641600Y284480D01*
X2641600Y289560D02*
X2585720Y289560D01*
X2575560Y279400D01*
X2275840Y279400D01*
X2260600Y294640D01*
X2819400Y289560D02*
X2870200Y243840D01*
X2819400Y289560D02*
X2641600Y289560D01*
D26*
X1158240Y299720D03*
X1864360Y294640D03*
X2575560Y289560D03*
D25*
X2575560Y294640D01*
X2839720Y294640D01*
X2895600Y243840D01*
X2895600Y238760D01*
X1569720Y289560D02*
X1554480Y304800D01*
X1864360Y299720D02*
X1864360Y294640D01*
X1864360Y299720D02*
X2265680Y299720D01*
X2280920Y284480D01*
X2550160Y284480D01*
X2560320Y294640D01*
X2575560Y294640D01*
X1554480Y304800D02*
X1158240Y304800D01*
X1158240Y299720D01*
X1569720Y289560D02*
X1711960Y289560D01*
X1722120Y299720D01*
X1737360Y299720D01*
X1828800Y294640D02*
X1833880Y294640D01*
X1828800Y294640D02*
X1823720Y289560D01*
X1747520Y289560D01*
X1737360Y299720D01*
X1838960Y289560D02*
X1849120Y289560D01*
X1838960Y289560D02*
X1833880Y294640D01*
X1849120Y289560D02*
X1859280Y299720D01*
X1864360Y299720D01*
D26*
X1127760Y304800D03*
X1844040Y299720D03*
D25*
X1127760Y304800D02*
X1127760Y309880D01*
X1559560Y309880D01*
X1574800Y294640D01*
D26*
X2550160Y294640D03*
D25*
X2550160Y299720D02*
X2854960Y299720D01*
X2550160Y299720D02*
X2550160Y294640D01*
X2854960Y299720D02*
X2921000Y238760D01*
X1844040Y299720D02*
X1844040Y304800D01*
X2270760Y304800D01*
X2286000Y289560D01*
X1706880Y294640D02*
X1574800Y294640D01*
X1706880Y294640D02*
X1717040Y304800D01*
X1742440Y304800D01*
X1752600Y294640D02*
X1818640Y294640D01*
X1752600Y294640D02*
X1742440Y304800D01*
X1818640Y294640D02*
X1828800Y304800D01*
X1844040Y304800D01*
X2286000Y289560D02*
X2529840Y289560D01*
X2540000Y299720D01*
X2550160Y299720D01*
D26*
X1102360Y309880D03*
X1813560Y304800D03*
X2524760Y299720D03*
D25*
X2524760Y304800D02*
X2890520Y304800D01*
X2524760Y304800D02*
X2524760Y299720D01*
X2931160Y259080D02*
X2946400Y243840D01*
X2931160Y259080D02*
X2915920Y259080D01*
X2915920Y279400D01*
X2890520Y304800D01*
X2946400Y243840D02*
X2946400Y238760D01*
X2275840Y309880D02*
X1813560Y309880D01*
X2275840Y309880D02*
X2291080Y294640D01*
X1102360Y309880D02*
X1102360Y314960D01*
X1564640Y314960D01*
X1579880Y299720D01*
X2514600Y304800D02*
X2524760Y304800D01*
X2514600Y304800D02*
X2504440Y294640D01*
X2291080Y294640D01*
X1813560Y304800D02*
X1813560Y309880D01*
X1701800Y299720D02*
X1579880Y299720D01*
X1701800Y299720D02*
X1711960Y309880D01*
X1747520Y309880D01*
X1757680Y299720D01*
X1798320Y299720D01*
X1808480Y309880D01*
X1813560Y309880D01*
D26*
X1082040Y314960D03*
X1793240Y309880D03*
X2499360Y304800D03*
D25*
X1584960Y304800D02*
X1569720Y320040D01*
X1082040Y320040D01*
X1082040Y314960D01*
X2280920Y314960D02*
X2296160Y299720D01*
X2280920Y314960D02*
X1793240Y314960D01*
X2971800Y254000D02*
X2971800Y238760D01*
X2936240Y309880D02*
X2499360Y309880D01*
X2499360Y304800D01*
X2494280Y309880D02*
X2484120Y299720D01*
X2494280Y309880D02*
X2499360Y309880D01*
X2484120Y299720D02*
X2296160Y299720D01*
X1793240Y309880D02*
X1793240Y314960D01*
X1696720Y304800D02*
X1584960Y304800D01*
X1696720Y304800D02*
X1706880Y314960D01*
X1752600Y314960D01*
X1762760Y304800D01*
X1772920Y304800D01*
X1783080Y314960D01*
X1793240Y314960D01*
X2961640Y284480D02*
X2961640Y264160D01*
X2971800Y254000D01*
X2961640Y284480D02*
X2936240Y309880D01*
D26*
X1051560Y320040D03*
X1767840Y314960D03*
X2473960Y309880D03*
D25*
X1590040Y309880D02*
X1574800Y325120D01*
X1051560Y325120D01*
X1051560Y320040D01*
X2286000Y320040D02*
X2301240Y304800D01*
X2473960Y314960D02*
X2951480Y314960D01*
X1701800Y320040D02*
X1691640Y309880D01*
X1590040Y309880D01*
X2301240Y304800D02*
X2402840Y304800D01*
X2413000Y314960D02*
X2473960Y314960D01*
X2413000Y314960D02*
X2402840Y304800D01*
X2473960Y309880D02*
X2473960Y314960D01*
X1767840Y320040D02*
X1701800Y320040D01*
X1767840Y320040D02*
X1767840Y314960D01*
X1767840Y320040D02*
X2286000Y320040D01*
X2951480Y314960D02*
X2997200Y269240D01*
X2997200Y238760D01*
D26*
X975360Y325120D03*
X1691640Y320040D03*
X2397760Y314960D03*
D25*
X1595120Y314960D02*
X1579880Y330200D01*
X975360Y330200D01*
X975360Y325120D01*
X2291080Y325120D02*
X2306320Y309880D01*
X2377440Y309880D01*
X2397760Y320040D02*
X2956560Y320040D01*
X2397760Y320040D02*
X2397760Y314960D01*
X1671320Y314960D02*
X1595120Y314960D01*
X1671320Y314960D02*
X1681480Y325120D01*
X1691640Y325120D02*
X1691640Y320040D01*
X1691640Y325120D02*
X1681480Y325120D01*
X1691640Y325120D02*
X2291080Y325120D01*
X2387600Y320040D02*
X2397760Y320040D01*
X2387600Y320040D02*
X2377440Y309880D01*
X3022600Y254000D02*
X3022600Y238760D01*
X3022600Y254000D02*
X2956560Y320040D01*
X924560Y335280D02*
X924560Y340360D01*
X1590040Y340360D01*
D26*
X924560Y335280D03*
D25*
X2311400Y325120D02*
X2352040Y325120D01*
X2311400Y325120D02*
X2301240Y335280D01*
X1635760Y335280D01*
X1635760Y330200D01*
D26*
X1635760Y330200D03*
X2352040Y325120D03*
D25*
X2357120Y330200D02*
X2992120Y330200D01*
X2357120Y330200D02*
X2352040Y325120D01*
X2992120Y330200D02*
X2992120Y299720D01*
X3032760Y259080D01*
X3053080Y259080D01*
X3073400Y238760D01*
X1635760Y325120D02*
X1635760Y330200D01*
X1635760Y325120D02*
X1605280Y325120D01*
X1590040Y340360D01*
D26*
X899160Y340360D03*
D25*
X2885440Y335280D02*
X2898140Y353060D01*
X2981960Y353060D01*
X2885440Y335280D02*
X2341880Y335280D01*
X2336800Y330200D01*
X2316480Y330200D01*
X2306320Y340360D01*
X1625600Y340360D01*
X1615440Y330200D01*
X1610360Y330200D01*
X1595120Y345440D01*
X899160Y345440D01*
X899160Y340360D01*
X2981960Y353060D02*
X3040380Y294640D01*
X3180080Y259080D02*
X3200400Y238760D01*
X3180080Y259080D02*
X3175000Y259080D01*
X3159760Y274320D01*
X3159760Y294640D01*
X3040380Y294640D01*
D26*
X1615440Y340360D03*
D25*
X2875280Y340360D02*
X2890520Y360680D01*
X2987040Y360680D01*
X1615440Y345440D02*
X1615440Y340360D01*
X1615440Y345440D02*
X2311400Y345440D01*
X2321560Y335280D01*
X2331720Y335280D01*
X2336800Y340360D01*
X2875280Y340360D01*
X3225800Y248920D02*
X3225800Y238760D01*
X3225800Y248920D02*
X3220720Y254000D01*
X3220720Y304800D01*
X3042920Y304800D01*
X2987040Y360680D01*
D26*
X2324100Y342900D03*
D25*
X2882900Y368300D02*
X2992120Y368300D01*
X2326640Y345440D02*
X2324100Y342900D01*
X2326640Y345440D02*
X2865120Y345440D01*
X2882900Y368300D01*
X2992120Y368300D02*
X3048000Y309880D01*
X3246120Y309880D01*
X3247898Y247142D02*
X3251200Y238760D01*
X3247898Y247142D02*
X3246120Y309880D01*
X2438400Y172720D02*
X2438400Y167640D01*
X2438400Y172720D02*
X1915160Y172720D01*
X1905000Y162560D01*
D26*
X1717040Y167640D03*
D25*
X1717040Y162560D02*
X1905000Y162560D01*
X1717040Y162560D02*
X1717040Y167640D01*
D26*
X2438400Y167640D03*
D25*
X2438400Y162560D01*
X2621280Y162560D01*
X2631440Y172720D01*
X2829560Y172720D01*
D26*
X2834640Y50800D03*
D25*
X1447800Y228600D02*
X1427480Y228600D01*
D26*
X1447800Y228600D03*
X1427480Y228600D03*
D25*
X2250440Y218440D02*
X2250440Y213360D01*
D26*
X2250440Y218440D03*
D25*
X2250440Y213360D02*
X2268645Y213360D01*
X2269407Y212598D01*
X2277193Y212598D01*
X2277955Y213360D01*
X2296160Y213360D01*
X2298700Y215900D01*
X2298700Y228600D01*
X2834640Y167640D02*
X2834640Y50800D01*
X2834640Y167640D02*
X2829560Y172720D01*
X1894840Y208280D02*
X1892300Y228600D01*
X1894840Y208280D02*
X2606040Y208280D01*
X2603500Y228600D01*
X1183640Y208280D02*
X1181100Y228600D01*
X1183640Y208280D02*
X1894840Y208280D01*
X2606040Y208280D02*
X3296920Y208280D01*
X3302000Y213360D01*
X3302000Y238760D01*
X2458720Y177800D02*
X2458720Y172720D01*
X2458720Y177800D02*
X1910080Y177800D01*
X1899920Y167640D01*
D26*
X2458720Y172720D03*
D25*
X2458720Y167640D01*
X2616200Y167640D02*
X2626360Y177800D01*
X2839720Y177800D01*
X2844800Y172720D01*
X2844800Y35560D01*
X2616200Y167640D02*
X2458720Y167640D01*
X1742440Y177800D02*
X1076960Y177800D01*
X952500Y210820D02*
X952500Y228600D01*
X952500Y210820D02*
X955040Y208280D01*
X1742440Y177800D02*
X1742440Y172720D01*
D26*
X1742440Y172720D03*
D25*
X1742440Y167640D02*
X1899920Y167640D01*
X1742440Y167640D02*
X1742440Y172720D01*
X1076960Y177800D02*
X1046480Y208280D01*
X955040Y208280D01*
X1054100Y228600D02*
X1056640Y228600D01*
X1082040Y182880D02*
X1762760Y182880D01*
X1762760Y177800D01*
D26*
X1762760Y177800D03*
D25*
X2479040Y177800D02*
X2479040Y182880D01*
X1905000Y182880D01*
X1894840Y172720D01*
X1762760Y172720D01*
X1762760Y177800D01*
D26*
X2479040Y177800D03*
D25*
X2484120Y172720D01*
X2611120Y172720D01*
X2621280Y182880D01*
X2865120Y182880D01*
X2870200Y177800D01*
X2870200Y35560D01*
X1082040Y182880D02*
X1056640Y208280D01*
X1056640Y228600D01*
X1079500Y228600D02*
X1082040Y228600D01*
X1092200Y187960D02*
X1788160Y187960D01*
X1788160Y182880D01*
D26*
X1788160Y182880D03*
D25*
X2504440Y182880D02*
X2504440Y187960D01*
X1899920Y187960D01*
X1889760Y177800D01*
X1788160Y177800D01*
X1788160Y182880D01*
D26*
X2504440Y182880D03*
D25*
X2509520Y177800D01*
X2606040Y177800D02*
X2616200Y187960D01*
X2890520Y187960D01*
X2895600Y182880D01*
X2895600Y35560D01*
X2606040Y177800D02*
X2509520Y177800D01*
X1092200Y187960D02*
X1082040Y198120D01*
X1082040Y228600D01*
X1102360Y228600D02*
X1102360Y193040D01*
X1102360Y228600D02*
X1104900Y228600D01*
X1102360Y193040D02*
X1813560Y193040D01*
X1813560Y187960D01*
D26*
X1813560Y187960D03*
D25*
X2529840Y187960D02*
X2529840Y193040D01*
X1894840Y193040D01*
X1884680Y182880D01*
X1813560Y182880D01*
X1813560Y187960D01*
D26*
X2529840Y187960D03*
D25*
X2534920Y182880D01*
X2600960Y182880D01*
X2611120Y193040D01*
X2915920Y193040D02*
X2921000Y187960D01*
X2921000Y35560D01*
X2915920Y193040D02*
X2611120Y193040D01*
X1127760Y198120D02*
X1127760Y228600D01*
X1130300Y228600D01*
X1127760Y198120D02*
X1838960Y198120D01*
X1838960Y193040D01*
D26*
X1838960Y193040D03*
D25*
X1889760Y198120D02*
X2555240Y198120D01*
X1889760Y198120D02*
X1879600Y187960D01*
X1838960Y187960D01*
X1838960Y193040D01*
X2555240Y193040D02*
X2555240Y198120D01*
D26*
X2555240Y193040D03*
D25*
X2560320Y187960D01*
X2595880Y187960D01*
X2606040Y198120D01*
X2941320Y198120D02*
X2946400Y193040D01*
X2946400Y35560D01*
X2941320Y198120D02*
X2606040Y198120D01*
X1158240Y203200D02*
X1158240Y228600D01*
X1155700Y228600D01*
X1158240Y203200D02*
X1869440Y203200D01*
D26*
X1869440Y198120D03*
D25*
X1869440Y203200D02*
X2580640Y203200D01*
X1869440Y203200D02*
X1869440Y198120D01*
D26*
X2580640Y198120D03*
D25*
X2580640Y203200D01*
X2966720Y203200D01*
X2971800Y198120D01*
X2971800Y35560D01*
X716280Y167640D02*
X20320Y167640D01*
X20320Y309880D01*
X3149600Y213360D02*
X3175000Y238760D01*
X3149600Y213360D02*
X2631440Y213360D01*
X2631440Y218440D01*
X2631440Y162560D02*
X2626360Y157480D01*
X2092960Y167640D02*
X2077720Y152400D01*
X2067560Y162560D01*
X1925320Y162560D01*
X1915160Y152400D01*
X716280Y167640D02*
X716280Y203200D01*
D26*
X2631440Y218440D03*
X2631440Y162560D03*
X1727200Y152400D03*
X716280Y203200D03*
D25*
X2092960Y167640D02*
X2423160Y167640D01*
X2433320Y157480D01*
X2626360Y157480D01*
X1755324Y145824D02*
X1734636Y145824D01*
X1761900Y152400D02*
X1915160Y152400D01*
X1728060Y152400D02*
X1727200Y152400D01*
X1755324Y145824D02*
X1761900Y152400D01*
X1734636Y145824D02*
X1728060Y152400D01*
X45720Y317500D02*
X27940Y317500D01*
X20320Y309880D01*
X25400Y172720D02*
X695960Y172720D01*
X3129280Y218440D02*
X3149600Y238760D01*
X3129280Y218440D02*
X2646680Y218440D01*
X2646680Y223520D01*
X2646680Y162560D02*
X2636520Y152400D01*
X2098040Y162560D02*
X2082800Y147320D01*
X2072640Y147320D01*
X2062480Y157480D01*
X1930400Y157480D01*
X1915160Y81280D02*
X1737360Y81280D01*
X695960Y172720D02*
X695960Y198120D01*
D26*
X2646680Y223520D03*
X2646680Y162560D03*
X1696720Y167640D03*
X695960Y198120D03*
D25*
X2098040Y162560D02*
X2418080Y162560D01*
X2428240Y152400D01*
X2636520Y152400D01*
X1737360Y127000D02*
X1737360Y81280D01*
X1737360Y127000D02*
X1696720Y167640D01*
X1930400Y157480D02*
X1930400Y96520D01*
X1915160Y81280D01*
X25400Y172720D02*
X25400Y284480D01*
X30480Y289560D01*
X43180Y289560D01*
X45720Y292100D01*
X30480Y251460D02*
X30480Y248920D01*
X30480Y177800D01*
X675640Y177800D01*
X3108960Y223520D02*
X3124200Y238760D01*
X3108960Y223520D02*
X2661920Y223520D01*
X2661920Y228600D01*
X2661920Y162560D02*
X2646680Y147320D01*
X2423160Y147320D01*
X2413000Y157480D01*
X2103120Y157480D01*
D26*
X2661920Y228600D03*
X2661920Y162560D03*
X1701800Y152400D03*
D25*
X1727200Y76200D02*
X1920240Y76200D01*
X675640Y177800D02*
X675640Y187960D01*
D26*
X675640Y187960D03*
D25*
X2087880Y142240D02*
X2103120Y157480D01*
X2087880Y142240D02*
X2067560Y142240D01*
X2057400Y152400D01*
X1935480Y152400D01*
X1727200Y127000D02*
X1727200Y76200D01*
X1727200Y127000D02*
X1701800Y152400D01*
X1935480Y152400D02*
X1935480Y91440D01*
X1920240Y76200D01*
X30480Y251460D02*
X30480Y259080D01*
X38100Y266700D01*
X45720Y266700D01*
D27*
X568960Y304800D02*
X607060Y342900D01*
X609600Y342900D01*
X629920Y342900D01*
X876300Y355600D02*
X876300Y381000D01*
X1562100Y381000D02*
X1562100Y355600D01*
X1468120Y355600D02*
X876300Y355600D01*
X1468120Y355600D02*
X1478280Y355600D01*
X1483360Y355600D01*
X1518920Y355600D01*
X1524000Y355600D01*
X1534160Y355600D01*
X1562100Y355600D01*
X1574800Y355600D01*
X1587500Y355600D01*
X1587500Y381000D01*
X1587500Y355600D02*
X2164080Y355600D01*
X2174240Y355600D01*
X2179320Y355600D01*
X2214880Y355600D01*
X2225040Y355600D01*
X2235200Y355600D01*
X2273300Y355600D01*
X2273300Y381000D01*
X2273300Y355600D02*
X2286000Y355600D01*
X2298700Y355600D01*
X2298700Y381000D01*
X2298700Y355600D02*
X2669540Y355600D01*
X876300Y355600D02*
X863600Y355600D01*
X850900Y355600D01*
X850900Y368300D01*
X850900Y381000D01*
X850900Y355600D02*
X817880Y355600D01*
X812800Y355600D01*
X802640Y355600D01*
X762000Y355600D01*
X756920Y355600D01*
X660400Y355600D01*
X629920Y342900D01*
X850900Y381000D02*
X863600Y381000D01*
X876300Y381000D01*
X863600Y381000D02*
X850900Y368300D01*
X863600Y381000D02*
X863600Y355600D01*
X1562100Y381000D02*
X1574800Y381000D01*
X1587500Y381000D01*
X1574800Y381000D02*
X1574800Y355600D01*
X2273300Y381000D02*
X2286000Y381000D01*
X2298700Y381000D01*
X2286000Y381000D02*
X2286000Y355600D01*
X632460Y355600D02*
X609600Y342900D01*
X632460Y355600D02*
X660400Y355600D01*
X2669540Y355600D02*
X2705100Y388620D01*
X3256280Y388620D01*
D28*
X49440Y78380D02*
X49440Y55880D01*
D27*
X548640Y304800D02*
X568960Y304800D01*
X548640Y304800D02*
X497840Y304800D01*
X406400Y304800D01*
X355600Y304800D01*
X264160Y304800D01*
X213360Y304800D01*
X121920Y304800D01*
X96520Y304800D01*
X96520Y299720D01*
X96520Y304800D02*
X96520Y322580D01*
X96520Y365760D01*
X45720Y365760D01*
X45720Y342900D01*
D29*
X548640Y322580D02*
X548640Y304800D01*
X497840Y304800D02*
X497840Y322580D01*
X548640Y304800D02*
X548640Y287020D01*
X497840Y287020D02*
X497840Y304800D01*
X406400Y304800D02*
X406400Y287020D01*
X406400Y304800D02*
X406400Y322580D01*
X355600Y322580D02*
X355600Y304800D01*
X355600Y287020D01*
X264160Y304800D02*
X264160Y322580D01*
X264160Y304800D02*
X264160Y287020D01*
X213360Y304800D02*
X213360Y322580D01*
X213360Y304800D02*
X213360Y287020D01*
X121920Y304800D02*
X121920Y322580D01*
X96520Y322580D02*
X71120Y322580D01*
X96520Y322580D02*
X96520Y299720D01*
X96520Y287020D01*
X3362960Y327660D02*
X3388360Y327660D01*
X3362960Y327660D02*
X3337560Y327660D01*
X3362960Y287020D02*
X3388360Y287020D01*
X3362960Y287020D02*
X3337560Y287020D01*
X3362960Y287020D02*
X3362960Y327660D01*
X3337560Y327660D02*
X3276600Y327660D01*
X3246120Y327660D01*
X3195320Y327660D01*
X3276600Y327660D02*
X3276600Y368300D01*
X3256280Y388620D01*
X3327400Y35560D02*
X3327400Y15240D01*
X3398520Y15240D01*
X3398520Y35560D01*
X3400700Y33380D01*
X3412400Y33380D01*
X3454400Y33380D01*
X3496400Y33380D01*
X3496400Y55880D01*
X3454400Y335280D02*
X3390900Y388620D01*
X3256280Y388620D01*
X3454400Y335280D02*
X3454400Y33380D01*
X1518920Y355600D02*
X1518920Y373380D01*
X1526540Y381000D01*
X1468120Y378460D02*
X1468120Y355600D01*
X1468120Y378460D02*
X1475740Y381000D01*
X1534160Y373380D02*
X1534160Y355600D01*
X1534160Y373380D02*
X1526540Y381000D01*
X1483360Y378460D02*
X1483360Y355600D01*
X1483360Y378460D02*
X1475740Y381000D01*
X759460Y381000D02*
X756920Y378460D01*
X756920Y355600D01*
X762000Y378460D02*
X759460Y381000D01*
X762000Y378460D02*
X762000Y355600D01*
X802640Y373380D02*
X810260Y381000D01*
X802640Y373380D02*
X802640Y355600D01*
X817880Y373380D02*
X810260Y381000D01*
X817880Y373380D02*
X817880Y355600D01*
X812800Y378460D02*
X810260Y381000D01*
X812800Y378460D02*
X812800Y355600D01*
X1475740Y358140D02*
X1475740Y381000D01*
X1475740Y358140D02*
X1478280Y355600D01*
X1526540Y358140D02*
X1526540Y381000D01*
X1526540Y358140D02*
X1524000Y355600D01*
X2171700Y375920D02*
X2171700Y381000D01*
X2171700Y375920D02*
X2164080Y375920D01*
X2164080Y355600D01*
X2171700Y360680D02*
X2171700Y381000D01*
X2179320Y375920D02*
X2171700Y360680D01*
X2179320Y355600D02*
X2179320Y375920D01*
X2171700Y381000D02*
X2176780Y358140D01*
X2174240Y355600D01*
X2214880Y373380D02*
X2222500Y381000D01*
X2214880Y373380D02*
X2214880Y355600D01*
X2232660Y373380D02*
X2222500Y381000D01*
X2225040Y360680D02*
X2229104Y358648D01*
X2235200Y355600D01*
X2225040Y378460D02*
X2222500Y381000D01*
X2225040Y360680D02*
X2225040Y355600D01*
X2232660Y362204D02*
X2232660Y373380D01*
X2232660Y362204D02*
X2229104Y358648D01*
X2222500Y363220D02*
X2222500Y381000D01*
X2222500Y363220D02*
X2225040Y360680D01*
D26*
X2042160Y121920D03*
D28*
X1960880Y127000D02*
X1960880Y71120D01*
X1960880Y127000D02*
X1996440Y126746D01*
X2037080Y127000D01*
X2042160Y121920D01*
X1960880Y71120D02*
X1940560Y50800D01*
D26*
X3042920Y177800D03*
D30*
X3327400Y177800D02*
X3327400Y35560D01*
X3327400Y177800D02*
X3042920Y177800D01*
D26*
X2819400Y137160D03*
X2819400Y162560D03*
D30*
X2819400Y137160D01*
X2819400Y35560D01*
D25*
X2771140Y35560D01*
X2768600Y33020D01*
X2768600Y20320D01*
X2689860Y20320D01*
X2687320Y22860D01*
D26*
X91440Y81280D03*
D25*
X130540Y81280D02*
X133440Y78380D01*
X88540Y78380D02*
X49440Y78380D01*
X88540Y78380D02*
X91440Y81280D01*
X94340Y78380D02*
X133440Y78380D01*
X94340Y78380D02*
X91440Y81280D01*
D28*
X1656080Y50800D02*
X1940560Y50800D01*
X1605280Y40640D02*
X1595120Y50800D01*
X1595120Y127000D01*
X1602740Y134620D02*
X1623060Y134620D01*
X1656080Y50800D02*
X1645920Y40640D01*
X1605280Y40640D01*
X1595120Y127000D02*
X1602740Y134620D01*
D25*
X609600Y254000D02*
X589280Y228600D01*
X452120Y228600D02*
X452120Y215900D01*
X452120Y228600D02*
X589280Y228600D01*
X655320Y254000D02*
X660400Y259080D01*
X655320Y254000D02*
X609600Y254000D01*
D26*
X2829560Y264160D03*
D25*
X2824480Y259080D02*
X660400Y259080D01*
X2824480Y259080D02*
X2829560Y264160D01*
X614680Y279400D02*
X579120Y238760D01*
X426720Y238760D02*
X426720Y215900D01*
X426720Y238760D02*
X579120Y238760D01*
X645160Y279400D02*
X660400Y264160D01*
X2809240Y264160D01*
X645160Y279400D02*
X614680Y279400D01*
X2809240Y264160D02*
X2819400Y274320D01*
D26*
X2819400Y274320D03*
D25*
X401320Y248920D02*
X401320Y215900D01*
X401320Y248920D02*
X558800Y248920D01*
X614680Y304800D01*
X675640Y269240D02*
X2794000Y269240D01*
X675640Y269240D02*
X644491Y304800D01*
X614680Y304800D01*
X2794000Y269240D02*
X2804160Y279400D01*
D26*
X2804160Y279400D03*
D25*
X645160Y330200D02*
X614680Y330200D01*
X645160Y330200D02*
X701040Y274320D01*
X375920Y274320D02*
X375920Y215900D01*
X375920Y274320D02*
X558800Y274320D01*
X614680Y330200D01*
X701040Y274320D02*
X2778760Y274320D01*
X2783840Y279400D01*
D26*
X2860040Y355600D03*
X2783840Y279400D03*
D25*
X3195320Y353060D02*
X3246120Y353060D01*
X3195320Y355600D02*
X3175000Y375920D01*
X2875280Y375920D01*
X2860040Y355600D01*
X3195320Y355600D02*
X3195320Y353060D01*
X2184400Y152400D02*
X2184400Y132080D01*
X2184400Y152400D02*
X2392680Y152400D01*
X2392680Y60960D01*
D26*
X2392680Y60960D03*
X3413760Y50800D03*
X3479800Y76200D03*
D25*
X3413760Y81280D02*
X3413760Y50800D01*
X3412400Y78380D02*
X3413760Y81280D01*
X3479800Y76200D02*
X3489960Y76200D01*
X3500120Y81280D01*
X3496400Y78380D01*
D28*
X762000Y86360D02*
X762000Y55880D01*
X762000Y86360D02*
X828040Y86360D01*
X828040Y132080D01*
X830580Y134620D01*
D25*
X2768600Y134620D02*
X2768600Y116840D01*
X2727960Y116840D01*
X2720340Y109220D01*
X2720340Y45720D02*
X2720340Y40640D01*
X2720340Y45720D02*
X2720340Y109220D01*
X2687320Y48260D02*
X2689860Y45720D01*
X2720340Y45720D01*
X3175000Y35560D02*
X3175000Y76200D01*
D26*
X3175000Y76200D03*
D25*
X3149600Y76200D02*
X3149600Y35560D01*
D26*
X3149600Y76200D03*
D25*
X1950720Y76200D02*
X1935480Y60960D01*
X1950720Y76200D02*
X1950720Y137160D01*
X2042160Y137160D01*
X2052320Y127000D01*
X2113280Y127000D01*
X2113280Y106680D01*
X2367280Y106680D01*
X2367280Y121920D01*
D26*
X2367280Y121920D03*
D25*
X1625600Y60960D02*
X1623060Y58420D01*
X1625600Y60960D02*
X1935480Y60960D01*
D29*
X629920Y228600D02*
X629920Y241300D01*
X629920Y228600D02*
X629920Y193040D01*
X45720Y193040D01*
X45720Y241300D01*
D31*
X843280Y241300D02*
X848360Y241300D01*
X850900Y228600D01*
X850900Y233680D01*
X850900Y246380D01*
X853440Y248920D01*
X1559560Y248920D02*
X1562100Y246380D01*
X1562100Y228600D01*
X1483360Y248920D02*
X853440Y248920D01*
X1483360Y248920D02*
X1524000Y248920D01*
X1559560Y248920D01*
X1564640Y231140D02*
X1562100Y228600D01*
X1564640Y231140D02*
X1564640Y248920D01*
X2159000Y248920D01*
X2169160Y248920D01*
X2184400Y248920D01*
X2209800Y248920D01*
X2225040Y248920D01*
X2270760Y248920D01*
X2273300Y246380D01*
X2273300Y243840D01*
X2275840Y231140D02*
X2273300Y228600D01*
X2275840Y231140D02*
X2275840Y248920D01*
X2616200Y248920D01*
D29*
X645160Y241300D02*
X629920Y241300D01*
X645160Y241300D02*
X751840Y241300D01*
X769620Y241300D01*
X812800Y241300D01*
X822960Y241300D01*
X838200Y241300D01*
X843280Y241300D01*
X850900Y233680D01*
D31*
X1526540Y243840D02*
X1526540Y246380D01*
X1524000Y248920D01*
X1483360Y248920D02*
X1475740Y246380D01*
D29*
X1526540Y243840D02*
X1526540Y228600D01*
X1475740Y231140D02*
X1475740Y246380D01*
X810260Y238760D02*
X810260Y228600D01*
X810260Y238760D02*
X812800Y241300D01*
X759460Y231140D02*
X751840Y238760D01*
X751840Y241300D01*
X759460Y231140D02*
X769620Y241300D01*
X810260Y228600D02*
X822960Y241300D01*
X838200Y241300D02*
X843280Y246380D01*
X850900Y246380D01*
X645160Y241300D02*
X632460Y228600D01*
X629920Y228600D01*
X850900Y228600D02*
X850900Y236220D01*
X858520Y243840D01*
X1554480Y236220D02*
X1562100Y228600D01*
X1554480Y236220D02*
X1554480Y243840D01*
X1562100Y236220D02*
X1562100Y228600D01*
X1562100Y236220D02*
X1569720Y243840D01*
D26*
X3027680Y152400D03*
X3352800Y60960D03*
D30*
X3352800Y193040D02*
X3027680Y193040D01*
X3027680Y152400D01*
X2819400Y238760D02*
X2621280Y238760D01*
X3352800Y60960D02*
X3352800Y35560D01*
X3352800Y60960D02*
X3352800Y193040D01*
D29*
X2273300Y228600D02*
X2273300Y243840D01*
X2275840Y248920D02*
X2235200Y248920D01*
X2222500Y236220D01*
X2222500Y228600D02*
X2222500Y246380D01*
X2225040Y248920D01*
X2222500Y236220D02*
X2222500Y228600D01*
X2222500Y236220D02*
X2209800Y248920D01*
X2184400Y248920D02*
X2171700Y236220D01*
X2171700Y231140D02*
X2171700Y246380D01*
X2169160Y248920D01*
X2171700Y236220D02*
X2171700Y231140D01*
X2171700Y236220D02*
X2159000Y248920D01*
X2621280Y243840D02*
X2621280Y238760D01*
X2621280Y243840D02*
X2616200Y248920D01*
D26*
X2804160Y162560D03*
D25*
X2804160Y60960D02*
X2748280Y60960D01*
X2804160Y60960D02*
X2804160Y162560D01*
X2748280Y60960D02*
X2745740Y58420D01*
X2745740Y40640D01*
X96520Y261620D02*
X68580Y261620D01*
X15240Y325120D02*
X20320Y330200D01*
X60960Y269240D02*
X68580Y261620D01*
X15240Y142240D02*
X40640Y121920D01*
X15240Y142240D02*
X15240Y325120D01*
X60960Y325120D02*
X60960Y269240D01*
X60960Y325120D02*
X55880Y330200D01*
X20320Y330200D01*
X1026160Y193040D02*
X1046480Y172720D01*
X1026160Y193040D02*
X863600Y193040D01*
X3200400Y76200D02*
X3200400Y35560D01*
D26*
X1046480Y172720D03*
X3200400Y76200D03*
D25*
X838200Y71120D02*
X838200Y55880D01*
X853440Y86360D02*
X853440Y182880D01*
X863600Y193040D01*
X853440Y86360D02*
X838200Y71120D01*
M02*
