M48
;GenerationSoftware,Autodesk,EAGLE,8.6.3*%
;CreationDate,2020-10-25T23:43:17Z*%
FMAT,2
ICI,OFF
METRIC,TZ,000.000
T7C0.350
T6C0.813
T5C0.850
T4C0.900
T3C1.000
T2C1.016
T1C1.300
%
G90
M71
T1
X64029Y5055
X58949Y5055
T2
X162306Y10922
X217170Y38100
X217170Y23114
X162306Y8382
X162306Y5842
X213360Y13208
X215900Y13208
X218440Y13208
X220980Y13208
X223520Y13208
X272034Y4064
X147574Y23114
X147574Y38100
X75946Y23114
X75946Y38100
X228600Y13208
X76200Y5588
X78740Y5588
X226060Y13208
X81280Y5588
X83820Y5588
X86360Y5588
X162306Y16002
X162306Y13462
X231140Y13208
X274574Y4064
T3
X199644Y4572
X271780Y15240
X342900Y39370
X272796Y14224
X18288Y12192
X19812Y12192
X19812Y13716
X18288Y13716
X341884Y17780
X340360Y17780
X341884Y19304
X340360Y19304
X315976Y13716
X317500Y15240
X315976Y15240
X178816Y10668
X180340Y10668
X180340Y12192
X178816Y12192
X75692Y11176
X77216Y11176
X77216Y12700
X75692Y12700
X7620Y1016
X1524Y1016
X3048Y1016
X4572Y1016
X6096Y1016
X291084Y1016
X289560Y1016
X288036Y1016
X1270Y39370
X2540Y39370
X27432Y21590
X3810Y39370
X5080Y39370
X6350Y39370
X88392Y1270
X87122Y1270
X174752Y1270
X173228Y1270
X50800Y7874
X21336Y7874
X344170Y1270
X342900Y1270
X270764Y14224
X317500Y13716
X344170Y39370
X4572Y34290
X4572Y31750
X4572Y29210
X4572Y26670
X4572Y24130
X62992Y34290
X62992Y31750
X62992Y29210
X62992Y26670
X62992Y24130
X9652Y21590
X12192Y21590
X14732Y21590
X17272Y21590
X22352Y21590
X24892Y21590
X29972Y21590
X37592Y21590
X40132Y21590
X42672Y21590
X45212Y21590
X50292Y21590
X52832Y21590
X55372Y21590
X57912Y21590
X199644Y3048
X201168Y3048
X201168Y4572
T4
X287020Y3556
X289560Y3556
X292100Y3556
X294640Y3556
X297180Y3556
X299720Y3556
X302260Y3556
X327660Y23876
X307340Y3556
X309880Y3556
X312420Y3556
X314960Y3556
X317500Y3556
X320040Y3556
X322580Y3556
X325120Y3556
X327660Y3556
X330200Y3556
X332740Y3556
X335280Y3556
X335280Y23876
X332740Y23876
X330200Y23876
X325120Y23876
X322580Y23876
X304800Y3556
X317500Y23876
X314960Y23876
X312420Y23876
X309880Y23876
X307340Y23876
X304800Y23876
X302260Y23876
X299720Y23876
X297180Y23876
X294640Y23876
X292100Y23876
X289560Y23876
X287020Y23876
X284480Y23876
X281940Y23876
X281940Y3556
X284480Y3556
X320040Y23876
T5
X126492Y13716
X127508Y13716
X128524Y13716
X129540Y13716
X130556Y13716
X131572Y13716
X132588Y13716
X133604Y13716
X134620Y13716
X135636Y13716
X136652Y13716
X137668Y13716
X138684Y13716
X139700Y13716
X140716Y13716
X141732Y13716
X142748Y13716
X143764Y13716
X144780Y13716
X145796Y13716
X146812Y13716
X147828Y13716
X148844Y13716
X149860Y13716
X150876Y13716
X151892Y13716
X152908Y13716
X153924Y13716
X222504Y4064
X155956Y13716
X155956Y12700
X155956Y11684
X155956Y10668
X155956Y9652
X155956Y8636
X155956Y7620
X155956Y6604
X155956Y5588
X155956Y4572
X155956Y3556
X155956Y2540
X93980Y12700
X93980Y11684
X93980Y10668
X93980Y9652
X93980Y8636
X93980Y7620
X93980Y6604
X93980Y5588
X93980Y4572
X93980Y3556
X93980Y2540
X94996Y1524
X96012Y1524
X97028Y1524
X98044Y1524
X99060Y1524
X100076Y1524
X101092Y1524
X102108Y1524
X103124Y1524
X104140Y1524
X105156Y1524
X106172Y1524
X107188Y1524
X108204Y1524
X109220Y1524
X110236Y1524
X111252Y1524
X112268Y1524
X113284Y1524
X114300Y1524
X115316Y1524
X116332Y1524
X117348Y1524
X118364Y1524
X119380Y1524
X262128Y4064
X121412Y1524
X122428Y1524
X123444Y1524
X124460Y1524
X125476Y1524
X126492Y1524
X127508Y1524
X128524Y1524
X129540Y1524
X130556Y1524
X131572Y1524
X132588Y1524
X133604Y1524
X134620Y1524
X135636Y1524
X136652Y1524
X137668Y1524
X138684Y1524
X139700Y1524
X140716Y1524
X141732Y1524
X142748Y1524
X143764Y1524
X144780Y1524
X145796Y1524
X146812Y1524
X147828Y1524
X148844Y1524
X149860Y1524
X150876Y1524
X151892Y1524
X152908Y1524
X153924Y1524
X154940Y1524
X93980Y1524
X155956Y1524
X30988Y5080
X32004Y5080
X33020Y5080
X34036Y5080
X154940Y13716
X36068Y5080
X37084Y5080
X38100Y5080
X39116Y5080
X40132Y5080
X41148Y5080
X42164Y5080
X30988Y10160
X32004Y10160
X33020Y10160
X34036Y10160
X35052Y10160
X36068Y10160
X37084Y10160
X38100Y10160
X39116Y10160
X40132Y10160
X41148Y10160
X42164Y10160
X209296Y3048
X210312Y3048
X211328Y3048
X212344Y3048
X213360Y3048
X214376Y3048
X215392Y3048
X216408Y3048
X217424Y3048
X218440Y3048
X219456Y3048
X220472Y3048
X221488Y3048
X222504Y3048
X223520Y3048
X224536Y3048
X225552Y3048
X226568Y3048
X227584Y3048
X228600Y3048
X229616Y3048
X230632Y3048
X231648Y3048
X232664Y3048
X233680Y3048
X234696Y3048
X235712Y3048
X236728Y3048
X237744Y3048
X238760Y3048
X239776Y3048
X240792Y3048
X241808Y3048
X242824Y3048
X243840Y3048
X244856Y3048
X245872Y3048
X246888Y3048
X247904Y3048
X248920Y3048
X249936Y3048
X250952Y3048
X251968Y3048
X252984Y3048
X254000Y3048
X255016Y3048
X256032Y3048
X257048Y3048
X258064Y3048
X259080Y3048
X260096Y3048
X221488Y4064
X262128Y3048
X263144Y3048
X264160Y3048
X265176Y3048
X209296Y4064
X210312Y4064
X211328Y4064
X212344Y4064
X213360Y4064
X214376Y4064
X215392Y4064
X216408Y4064
X217424Y4064
X218440Y4064
X219456Y4064
X220472Y4064
X140716Y15748
X139700Y15748
X138684Y15748
X137668Y15748
X136652Y15748
X29972Y6096
X29972Y7112
X29972Y8128
X29972Y9144
X29972Y10160
X29972Y5080
X42164Y6096
X42164Y7112
X42164Y8128
X42164Y9144
X265176Y4064
X264160Y4064
X263144Y4064
X261112Y4064
X260096Y4064
X259080Y4064
X258064Y4064
X257048Y4064
X256032Y4064
X255016Y4064
X254000Y4064
X252984Y4064
X251968Y4064
X250952Y4064
X249936Y4064
X248920Y4064
X247904Y4064
X246888Y4064
X245872Y4064
X244856Y4064
X243840Y4064
X242824Y4064
X241808Y4064
X240792Y4064
X120396Y1524
X239776Y4064
X238760Y4064
X237744Y4064
X236728Y4064
X235712Y4064
X234696Y4064
X233680Y4064
X232664Y4064
X231648Y4064
X230632Y4064
X35052Y5080
X229616Y4064
X228600Y4064
X227584Y4064
X226568Y4064
X225552Y4064
X224536Y4064
X223520Y4064
X98044Y16256
X99060Y16256
X100076Y16256
X101092Y16256
X102108Y16256
X93980Y13716
X94996Y13716
X96012Y13716
X97028Y13716
X98044Y13716
X99060Y13716
X100076Y13716
X101092Y13716
X102108Y13716
X103124Y13716
X104140Y13716
X105156Y13716
X106172Y13716
X107188Y13716
X108204Y13716
X109220Y13716
X110236Y13716
X111252Y13716
X112268Y13716
X113284Y13716
X114300Y13716
X115316Y13716
X116332Y13716
X117348Y13716
X118364Y13716
X119380Y13716
X120396Y13716
X121412Y13716
X122428Y13716
X123444Y13716
X124460Y13716
X125476Y13716
X261112Y3048
T6
X255270Y38100
X257810Y38100
X260350Y38100
X222250Y38100
X232410Y22860
X88392Y13462
X88392Y16002
X83058Y16002
X83058Y13462
X81026Y22860
X81026Y38100
X152654Y22860
X152654Y38100
X118110Y22860
X115570Y22860
X113030Y22860
X110490Y22860
X107950Y22860
X105410Y22860
X102870Y22860
X100330Y22860
X276860Y3302
X276860Y13462
X97790Y22860
X95250Y22860
X92710Y22860
X90170Y22860
X87630Y22860
X85090Y22860
X85090Y38100
X87630Y38100
X90170Y38100
X92710Y38100
X95250Y38100
X97790Y38100
X100330Y38100
X102870Y38100
X105410Y38100
X107950Y38100
X110490Y38100
X113030Y38100
X115570Y38100
X118110Y38100
X189230Y22860
X186690Y22860
X184150Y22860
X181610Y22860
X179070Y22860
X176530Y22860
X173990Y22860
X171450Y22860
X168910Y22860
X166370Y22860
X163830Y22860
X161290Y22860
X158750Y22860
X156210Y22860
X156210Y38100
X158750Y38100
X161290Y38100
X163830Y38100
X166370Y38100
X168910Y38100
X171450Y38100
X173990Y38100
X176530Y38100
X179070Y38100
X181610Y38100
X184150Y38100
X186690Y38100
X189230Y38100
X260350Y22860
X257810Y22860
X255270Y22860
X252730Y22860
X250190Y22860
X247650Y22860
X245110Y22860
X242570Y22860
X240030Y22860
X237490Y22860
X234950Y22860
X222250Y22860
X229870Y22860
X227330Y22860
X227330Y38100
X229870Y38100
X232410Y38100
X234950Y38100
X237490Y38100
X240030Y38100
X242570Y38100
X245110Y38100
X247650Y38100
X21336Y34798
X21336Y32258
X26416Y34798
X26416Y32258
X7112Y34798
X7112Y32258
X12192Y34798
X12192Y32258
X40640Y34798
X40640Y32258
X35560Y34798
X35560Y32258
X26416Y26162
X26416Y28702
X21336Y26162
X21336Y28702
X40640Y26162
X40640Y28702
X35560Y26162
X35560Y28702
X54864Y26162
X54864Y28702
X49784Y26162
X49784Y28702
X49784Y34798
X49784Y32258
X54864Y34798
X54864Y32258
X9652Y26162
X9652Y28702
X4064Y12192
X14224Y12192
X297434Y34036
X294894Y34036
X290322Y34036
X292862Y34036
X324612Y35306
X324612Y32766
X319532Y35306
X319532Y32766
X311658Y27432
X309118Y27432
X304038Y27432
X306578Y27432
X297434Y27432
X294894Y27432
X290322Y27432
X292862Y27432
X338836Y26162
X338836Y28702
X333756Y26162
X333756Y28702
X338836Y35306
X338836Y32766
X333756Y35306
X333756Y32766
X325882Y27432
X323342Y27432
X318262Y27432
X320802Y27432
X310388Y35306
X310388Y32766
X305308Y35306
X305308Y32766
X250190Y38100
X252730Y38100
X268732Y4826
X268732Y2286
T7
X181356Y30480
X110236Y30988
X255016Y29464
X184404Y29972
X112776Y30480
X257556Y28956
X186436Y29464
X304800Y11176
X115824Y29972
X264160Y28448
X193548Y28956
X118364Y29464
X302260Y35560
X297688Y32004
X237236Y32004
X94996Y33020
X166116Y32512
X322580Y10668
X174752Y15240
X207772Y16256
X307340Y6604
X195580Y3048
X200152Y11176
X168656Y7620
X157988Y15748
X106172Y16764
X312420Y11176
X317500Y7620
X320040Y7620
X305308Y13716
X235712Y13208
X104648Y17272
X280416Y16256
X335280Y6096
X302768Y15240
X236728Y12192
X314960Y7620
X347980Y7620
X341376Y5080
X239268Y6096
X278384Y27940
X286004Y35560
X280416Y27940
X281940Y27432
X282956Y26416
X9144Y8128
X281940Y16256
X281940Y13716
X304292Y17780
X204216Y12192
X67564Y18796
X170180Y15240
X266192Y16256
X266192Y22860
X69596Y19812
X169672Y16764
X264668Y16256
X264668Y22352
X71628Y20320
X172720Y15240
X263144Y16256
X263144Y21844
X258064Y19812
X186944Y19812
X255524Y19304
X183896Y19304
X252984Y18796
X181356Y18796
X250444Y18288
X178816Y18288
X247904Y17780
X176276Y17780
X174244Y17272
X245872Y17272
X225044Y21844
X142748Y22860
X144780Y22860
X283464Y5080
X243840Y16764
X171704Y16764
X232410Y34290
X161544Y34036
X89916Y34036
X235204Y32512
X163576Y33020
X92456Y33528
X239776Y31496
X169164Y32004
X97536Y32512
X247396Y30988
X176784Y31496
X105156Y32004
X249936Y30480
X179324Y30988
X108204Y31496
X252476Y29972
M30